<svg width="24" height="24" viewBox="0 0 24 24" fill="none" xmlns="http://www.w3.org/2000/svg">
<g clip-path="url(#clip0_942_500)">
<path d="M12 24C18.6274 24 24 18.6274 24 12C24 5.37258 18.6274 0 12 0C5.37258 0 0 5.37258 0 12C0 18.6274 5.37258 24 12 24Z" fill="url(#paint0_linear_942_500)"/>
<g clip-path="url(#clip1_942_500)">
<path d="M16.5 8H7.5C6.94772 8 6.5 8.44772 6.5 9V15C6.5 15.5523 6.94772 16 7.5 16H16.5C17.0523 16 17.5 15.5523 17.5 15V9C17.5 8.44772 17.0523 8 16.5 8Z" stroke="white" stroke-width="2" stroke-linecap="round" stroke-linejoin="round"/>
<path d="M6.5 11H17.5" stroke="white" stroke-width="2" stroke-linecap="round" stroke-linejoin="round"/>
</g>
</g>
<defs>
<linearGradient id="paint0_linear_942_500" x1="12" y1="-1.49008e-08" x2="20" y2="30" gradientUnits="userSpaceOnUse">
<stop offset="0.17" stop-color="#F8DF00"/>
<stop offset="1" stop-color="#614BFF" stop-opacity="0"/>
</linearGradient>
<clipPath id="clip0_942_500">
<rect width="24" height="24" fill="white"/>
</clipPath>
<clipPath id="clip1_942_500">
<rect width="12" height="12" fill="white" transform="translate(6 6)"/>
</clipPath>
</defs>
</svg>
