<svg width="24" height="24" viewBox="0 0 24 24" fill="none" xmlns="http://www.w3.org/2000/svg">
<g clip-path="url(#clip0_946_566)">
<path d="M12 24C18.6274 24 24 18.6274 24 12C24 5.37258 18.6274 0 12 0C5.37258 0 0 5.37258 0 12C0 18.6274 5.37258 24 12 24Z" fill="url(#paint0_linear_946_566)"/>
<g clip-path="url(#clip1_946_566)">
<path d="M10.5 16.5H8.5C8.23478 16.5 7.98043 16.3946 7.79289 16.2071C7.60536 16.0196 7.5 15.7652 7.5 15.5V8.5C7.5 8.23478 7.60536 7.98043 7.79289 7.79289C7.98043 7.60536 8.23478 7.5 8.5 7.5H10.5" stroke="white" stroke-width="2" stroke-linecap="round" stroke-linejoin="round"/>
<path d="M14 14.5L16.5 12L14 9.5" stroke="white" stroke-width="2" stroke-linecap="round" stroke-linejoin="round"/>
<path d="M16.5 12H10.5" stroke="white" stroke-width="2" stroke-linecap="round" stroke-linejoin="round"/>
</g>
</g>
<defs>
<linearGradient id="paint0_linear_946_566" x1="12" y1="-1.49008e-08" x2="20" y2="30" gradientUnits="userSpaceOnUse">
<stop offset="0.17" stop-color="#8F0904"/>
<stop offset="1" stop-color="#FF1F00" stop-opacity="0"/>
</linearGradient>
<clipPath id="clip0_946_566">
<rect width="24" height="24" fill="white"/>
</clipPath>
<clipPath id="clip1_946_566">
<rect width="12" height="12" fill="white" transform="translate(6 6)"/>
</clipPath>
</defs>
</svg>
