<svg width="24" height="24" viewBox="0 0 24 24" fill="none" xmlns="http://www.w3.org/2000/svg">
<g clip-path="url(#clip0_946_554)">
<path d="M12 24C18.6274 24 24 18.6274 24 12C24 5.37258 18.6274 0 12 0C5.37258 0 0 5.37258 0 12C0 18.6274 5.37258 24 12 24Z" fill="url(#paint0_linear_946_554)"/>
<g clip-path="url(#clip1_946_554)">
<path d="M16 12V17H8V12" stroke="white" stroke-width="2" stroke-linecap="round" stroke-linejoin="round"/>
<path d="M17 9.5H7V12H17V9.5Z" stroke="white" stroke-width="2" stroke-linecap="round" stroke-linejoin="round"/>
<path d="M12 17V9.5" stroke="white" stroke-width="2" stroke-linecap="round" stroke-linejoin="round"/>
<path d="M12 9.5H9.75C9.41848 9.5 9.10054 9.3683 8.86612 9.13388C8.6317 8.89946 8.5 8.58152 8.5 8.25C8.5 7.91848 8.6317 7.60054 8.86612 7.36612C9.10054 7.1317 9.41848 7 9.75 7C11.5 7 12 9.5 12 9.5Z" stroke="white" stroke-width="2" stroke-linecap="round" stroke-linejoin="round"/>
<path d="M12 9.5H14.25C14.5815 9.5 14.8995 9.3683 15.1339 9.13388C15.3683 8.89946 15.5 8.58152 15.5 8.25C15.5 7.91848 15.3683 7.60054 15.1339 7.36612C14.8995 7.1317 14.5815 7 14.25 7C12.5 7 12 9.5 12 9.5Z" stroke="white" stroke-width="2" stroke-linecap="round" stroke-linejoin="round"/>
</g>
</g>
<defs>
<linearGradient id="paint0_linear_946_554" x1="12" y1="-1.49008e-08" x2="20" y2="30" gradientUnits="userSpaceOnUse">
<stop offset="0.17" stop-color="#E7C8C8"/>
<stop offset="1" stop-color="#E15007"/>
</linearGradient>
<clipPath id="clip0_946_554">
<rect width="24" height="24" fill="white"/>
</clipPath>
<clipPath id="clip1_946_554">
<rect width="12" height="12" fill="white" transform="translate(6 6)"/>
</clipPath>
</defs>
</svg>
