<svg width="24" height="24" viewBox="0 0 24 24" fill="none" xmlns="http://www.w3.org/2000/svg">
<g clip-path="url(#clip0_945_536)">
<path d="M12 24C18.6274 24 24 18.6274 24 12C24 5.37258 18.6274 0 12 0C5.37258 0 0 5.37258 0 12C0 18.6274 5.37258 24 12 24Z" fill="url(#paint0_linear_945_536)"/>
<g clip-path="url(#clip1_945_536)">
<path d="M12 17C14.7614 17 17 14.7614 17 12C17 9.23858 14.7614 7 12 7C9.23858 7 7 9.23858 7 12C7 14.7614 9.23858 17 12 17Z" stroke="white" stroke-width="2" stroke-linecap="round" stroke-linejoin="round"/>
<path d="M10.28 7.375C12.465 10.39 13.29 12.085 14.295 16.235M15.565 8.545C13.705 10.72 11.095 11.375 7.125 11.47M16.875 12.42C15.125 11.955 13.56 12.01 12.405 12.42C11.115 12.88 9.9 13.85 8.685 15.58" stroke="white" stroke-width="2" stroke-linecap="round" stroke-linejoin="round"/>
</g>
</g>
<defs>
<linearGradient id="paint0_linear_945_536" x1="12" y1="-1.49008e-08" x2="20" y2="30" gradientUnits="userSpaceOnUse">
<stop offset="0.17" stop-color="#0063F8"/>
<stop offset="1" stop-color="#FF1F00" stop-opacity="0"/>
</linearGradient>
<clipPath id="clip0_945_536">
<rect width="24" height="24" fill="white"/>
</clipPath>
<clipPath id="clip1_945_536">
<rect width="12" height="12" fill="white" transform="translate(6 6)"/>
</clipPath>
</defs>
</svg>
