<svg width="24" height="24" viewBox="0 0 24 24" fill="none" xmlns="http://www.w3.org/2000/svg">
<g clip-path="url(#clip0_942_512)">
<path d="M12 24C18.6274 24 24 18.6274 24 12C24 5.37258 18.6274 0 12 0C5.37258 0 0 5.37258 0 12C0 18.6274 5.37258 24 12 24Z" fill="url(#paint0_linear_942_512)"/>
<path d="M8 15.75C8 15.4185 8.1317 15.1005 8.36612 14.8661C8.60054 14.6317 8.91848 14.5 9.25 14.5H16" stroke="white" stroke-width="2" stroke-linecap="round" stroke-linejoin="round"/>
<path d="M9.25 7H16V17H9.25C8.91848 17 8.60054 16.8683 8.36612 16.6339C8.1317 16.3995 8 16.0815 8 15.75V8.25C8 7.91848 8.1317 7.60054 8.36612 7.36612C8.60054 7.1317 8.91848 7 9.25 7Z" stroke="white" stroke-width="2" stroke-linecap="round" stroke-linejoin="round"/>
</g>
<defs>
<linearGradient id="paint0_linear_942_512" x1="12" y1="-1.49008e-08" x2="20" y2="30" gradientUnits="userSpaceOnUse">
<stop offset="0.17" stop-color="#0F6692"/>
<stop offset="1" stop-color="#D40026"/>
</linearGradient>
<clipPath id="clip0_942_512">
<rect width="24" height="24" fill="white"/>
</clipPath>
</defs>
</svg>
