<svg width="24" height="24" viewBox="0 0 24 24" fill="none" xmlns="http://www.w3.org/2000/svg">
<g clip-path="url(#clip0_942_530)">
<path d="M12 24C18.6274 24 24 18.6274 24 12C24 5.37258 18.6274 0 12 0C5.37258 0 0 5.37258 0 12C0 18.6274 5.37258 24 12 24Z" fill="url(#paint0_linear_942_530)"/>
<g clip-path="url(#clip1_942_530)">
<path d="M16 7.5H8C7.44772 7.5 7 7.94772 7 8.5V13.5C7 14.0523 7.44772 14.5 8 14.5H16C16.5523 14.5 17 14.0523 17 13.5V8.5C17 7.94772 16.5523 7.5 16 7.5Z" stroke="white" stroke-width="2" stroke-linecap="round" stroke-linejoin="round"/>
<path d="M10 16.5H14" stroke="white" stroke-width="2" stroke-linecap="round" stroke-linejoin="round"/>
<path d="M12 14.5V16.5" stroke="white" stroke-width="2" stroke-linecap="round" stroke-linejoin="round"/>
</g>
</g>
<defs>
<linearGradient id="paint0_linear_942_530" x1="12" y1="-1.49008e-08" x2="20" y2="30" gradientUnits="userSpaceOnUse">
<stop offset="0.17"/>
<stop offset="1" stop-color="#B311DB"/>
</linearGradient>
<clipPath id="clip0_942_530">
<rect width="24" height="24" fill="white"/>
</clipPath>
<clipPath id="clip1_942_530">
<rect width="12" height="12" fill="white" transform="translate(6 6)"/>
</clipPath>
</defs>
</svg>
