<svg width="12" height="12" viewBox="0 0 12 12" fill="none" xmlns="http://www.w3.org/2000/svg">
<g clip-path="url(#clip0_936_311)">
<path d="M6 11C8.76142 11 11 8.76142 11 6C11 3.23858 8.76142 1 6 1C3.23858 1 1 3.23858 1 6C1 8.76142 3.23858 11 6 11Z" stroke="#0F6692" stroke-width="2" stroke-linecap="round" stroke-linejoin="round"/>
<path d="M6 8C7.10457 8 8 7.10457 8 6C8 4.89543 7.10457 4 6 4C4.89543 4 4 4.89543 4 6C4 7.10457 4.89543 8 6 8Z" stroke="#0F6692" stroke-width="2" stroke-linecap="round" stroke-linejoin="round"/>
<path d="M2.465 2.46497L4.585 4.58497" stroke="#0F6692" stroke-width="2" stroke-linecap="round" stroke-linejoin="round"/>
<path d="M7.415 7.41504L9.535 9.53504" stroke="#0F6692" stroke-width="2" stroke-linecap="round" stroke-linejoin="round"/>
<path d="M7.415 4.58497L9.535 2.46497" stroke="#0F6692" stroke-width="2" stroke-linecap="round" stroke-linejoin="round"/>
<path d="M7.415 4.58495L9.18 2.81995" stroke="#0F6692" stroke-width="2" stroke-linecap="round" stroke-linejoin="round"/>
<path d="M2.465 9.53504L4.585 7.41504" stroke="#0F6692" stroke-width="2" stroke-linecap="round" stroke-linejoin="round"/>
</g>
<defs>
<clipPath id="clip0_936_311">
<rect width="12" height="12" fill="white"/>
</clipPath>
</defs>
</svg>
